<mxfile host="app.diagrams.net" agent="Mozilla/5.0 (Windows NT 10.0; Win64; x64; rv:131.0) Gecko/20100101 Firefox/131.0" version="24.8.0">
  <diagram name="Página-1" id="GTB9oWJ-UeTlJK11sb6T">
    <mxGraphModel dx="3467" dy="793" grid="1" gridSize="10" guides="1" tooltips="1" connect="1" arrows="1" fold="1" page="1" pageScale="1" pageWidth="827" pageHeight="1169" math="0" shadow="0">
      <root>
        <mxCell id="0" />
        <mxCell id="1" parent="0" />
        <mxCell id="GCFRtCRIiM9Vty_PEJ39-8" style="edgeStyle=orthogonalEdgeStyle;rounded=0;orthogonalLoop=1;jettySize=auto;html=1;entryX=0.5;entryY=0;entryDx=0;entryDy=0;strokeColor=#33FF55;" parent="1" source="GCFRtCRIiM9Vty_PEJ39-6" target="GCFRtCRIiM9Vty_PEJ39-7" edge="1">
          <mxGeometry relative="1" as="geometry">
            <Array as="points">
              <mxPoint x="-345" y="112.94" />
              <mxPoint x="-5" y="112.94" />
            </Array>
          </mxGeometry>
        </mxCell>
        <mxCell id="GCFRtCRIiM9Vty_PEJ39-9" style="edgeStyle=orthogonalEdgeStyle;rounded=0;orthogonalLoop=1;jettySize=auto;html=1;entryX=0.5;entryY=0;entryDx=0;entryDy=0;strokeColor=#33FF55;" parent="1" source="GCFRtCRIiM9Vty_PEJ39-6" target="Ei2YmkwPYuJ9kiN2iwpy-2" edge="1">
          <mxGeometry relative="1" as="geometry" />
        </mxCell>
        <mxCell id="GCFRtCRIiM9Vty_PEJ39-11" style="edgeStyle=orthogonalEdgeStyle;rounded=0;orthogonalLoop=1;jettySize=auto;html=1;entryX=0.5;entryY=0;entryDx=0;entryDy=0;strokeColor=#33FF55;" parent="1" source="GCFRtCRIiM9Vty_PEJ39-6" target="4qKspu7jauIVrjBCxB9f-15" edge="1">
          <mxGeometry relative="1" as="geometry" />
        </mxCell>
        <mxCell id="GCFRtCRIiM9Vty_PEJ39-6" value="&lt;div align=&quot;center&quot;&gt;TUSUARIO&lt;/div&gt;&lt;div&gt;VARCHAR&amp;nbsp; Nombre&lt;/div&gt;&lt;div&gt;VARCHAR&amp;nbsp; Email&lt;/div&gt;&lt;div&gt;VARCHAR&amp;nbsp; contraseña&lt;/div&gt;&lt;div&gt;FK &lt;span style=&quot;white-space: pre;&quot;&gt;&#x9;&lt;/span&gt;&lt;span style=&quot;white-space: pre;&quot;&gt;&#x9;&lt;/span&gt;&amp;nbsp; Id_Rol&lt;/div&gt;&lt;div&gt;DATE &lt;span style=&quot;white-space: pre;&quot;&gt;&#x9;  &lt;/span&gt;Fecha_Creacion&lt;br&gt;&lt;/div&gt;&lt;div&gt;&lt;br&gt;&lt;/div&gt;&lt;table style=&quot;width:100%;font-size:1em;&quot; cellpadding=&quot;2&quot; cellspacing=&quot;0&quot;&gt;&lt;tbody&gt;&lt;tr&gt;&lt;td&gt;PK INT&lt;br&gt;&lt;/td&gt;&lt;td&gt;&amp;nbsp;&amp;nbsp;&amp;nbsp;&amp;nbsp; ID_Usuario&lt;br&gt;&lt;/td&gt;&lt;/tr&gt;&lt;tr&gt;&lt;td&gt;&lt;br&gt;&lt;/td&gt;&lt;td&gt;&amp;nbsp;&lt;/td&gt;&lt;/tr&gt;&lt;tr&gt;&lt;td&gt;&amp;nbsp;&lt;/td&gt;&lt;td&gt;&amp;nbsp;&lt;/td&gt;&lt;/tr&gt;&lt;/tbody&gt;&lt;/table&gt;" style="verticalAlign=top;align=left;overflow=fill;html=1;whiteSpace=wrap;" parent="1" vertex="1">
          <mxGeometry x="-590" y="182.94" width="190" height="120" as="geometry" />
        </mxCell>
        <mxCell id="Ei2YmkwPYuJ9kiN2iwpy-2" value="&lt;div align=&quot;center&quot;&gt;TASIGNACION&lt;/div&gt;&lt;div&gt;INT&amp;nbsp; (PK)&amp;nbsp; &amp;nbsp; &amp;nbsp; &amp;nbsp; &amp;nbsp;Id_Asignacion&lt;/div&gt;&lt;div&gt;&lt;span style=&quot;background-color: initial;&quot;&gt;INT&lt;/span&gt;&amp;nbsp; (FK)&amp;nbsp;&lt;span style=&quot;white-space: pre;&quot;&gt;&#x9;&lt;/span&gt;Id_Supervisor&lt;/div&gt;&lt;div&gt;&lt;span style=&quot;background-color: initial;&quot;&gt;INT&lt;/span&gt;&amp;nbsp; (FK)&amp;nbsp; &amp;nbsp; &amp;nbsp; &amp;nbsp; &amp;nbsp;Id_Docente&lt;br&gt;&lt;/div&gt;&lt;div&gt;&lt;br&gt;&lt;/div&gt;&lt;table style=&quot;width:100%;font-size:1em;&quot; cellpadding=&quot;2&quot; cellspacing=&quot;0&quot;&gt;&lt;tbody&gt;&lt;tr&gt;&lt;td&gt;ENUM&lt;/td&gt;&lt;td&gt;&amp;nbsp; &amp;nbsp;Estado_asignacion&lt;br&gt;&lt;/td&gt;&lt;/tr&gt;&lt;tr&gt;&lt;td&gt;&lt;br&gt;&lt;/td&gt;&lt;td&gt;&lt;/td&gt;&lt;/tr&gt;&lt;/tbody&gt;&lt;/table&gt;" style="verticalAlign=top;align=left;overflow=fill;html=1;whiteSpace=wrap;" parent="1" vertex="1">
          <mxGeometry x="-840" y="482.94" width="180" height="134" as="geometry" />
        </mxCell>
        <mxCell id="GCFRtCRIiM9Vty_PEJ39-13" style="edgeStyle=orthogonalEdgeStyle;rounded=0;orthogonalLoop=1;jettySize=auto;html=1;entryX=0;entryY=0.5;entryDx=0;entryDy=0;strokeColor=#33FF55;" parent="1" source="yC70KYkXJRSxiZC5mLCi-5" target="Ei2YmkwPYuJ9kiN2iwpy-2" edge="1">
          <mxGeometry relative="1" as="geometry" />
        </mxCell>
        <mxCell id="yC70KYkXJRSxiZC5mLCi-5" value="&lt;div&gt;&lt;span style=&quot;white-space: pre;&quot;&gt;&#x9;&lt;/span&gt;&lt;span style=&quot;white-space: pre;&quot;&gt;&#x9;&lt;/span&gt;THISTORIAL&lt;/div&gt;&lt;div&gt;INT&amp;nbsp; &amp;nbsp; &amp;nbsp; &amp;nbsp; &amp;nbsp; IdAsignacion&lt;br&gt;&lt;/div&gt;&lt;div&gt;DATE&amp;nbsp; &amp;nbsp; Fecha_Revision&lt;/div&gt;&lt;div&gt;TEXT&amp;nbsp; &amp;nbsp; Observaciones&lt;/div&gt;&lt;div&gt;IENUM&amp;nbsp; Estado_Historial&lt;br&gt;&lt;/div&gt;&lt;div&gt;&lt;br&gt;&lt;/div&gt;&lt;table style=&quot;width:100%;font-size:1em;&quot; cellpadding=&quot;2&quot; cellspacing=&quot;0&quot;&gt;&lt;tbody&gt;&lt;tr&gt;&lt;td&gt;PK INT&lt;br&gt;&lt;/td&gt;&lt;td&gt;Id_Historial&lt;br&gt;&lt;/td&gt;&lt;/tr&gt;&lt;tr&gt;&lt;td&gt;FK INT&lt;br&gt;&lt;/td&gt;&lt;td&gt;Id_Asignacion&lt;br&gt;Id_Semestre&lt;br&gt;&lt;/td&gt;&lt;/tr&gt;&lt;tr&gt;&lt;td&gt;&lt;/td&gt;&lt;td&gt;&lt;br&gt;&lt;/td&gt;&lt;/tr&gt;&lt;/tbody&gt;&lt;/table&gt;" style="verticalAlign=top;align=left;overflow=fill;html=1;whiteSpace=wrap;" parent="1" vertex="1">
          <mxGeometry x="-1090" y="522.94" width="160" height="154" as="geometry" />
        </mxCell>
        <mxCell id="GCFRtCRIiM9Vty_PEJ39-7" value="&lt;div align=&quot;center&quot;&gt;TNOTIFICACION&lt;/div&gt;&lt;div&gt;VARCHAR&amp;nbsp; mensaje&lt;br&gt;&lt;/div&gt;&lt;div&gt;DATE &lt;span style=&quot;white-space: pre;&quot;&gt;&#x9;  fecha_notificacion&lt;/span&gt;&lt;br&gt;&lt;/div&gt;&lt;div&gt;&lt;br&gt;&lt;/div&gt;&lt;table style=&quot;width:100%;font-size:1em;&quot; cellpadding=&quot;2&quot; cellspacing=&quot;0&quot;&gt;&lt;tbody&gt;&lt;tr&gt;&lt;td&gt;PK INT&lt;br&gt;FK INT&lt;br&gt;&lt;/td&gt;&lt;td&gt;&amp;nbsp;&amp;nbsp;&amp;nbsp;&amp;nbsp; Id_Notificacion&lt;br&gt;&amp;nbsp;&amp;nbsp;&amp;nbsp;&amp;nbsp; Id_Usuario&lt;br&gt;&lt;/td&gt;&lt;/tr&gt;&lt;tr&gt;&lt;td&gt;&lt;br&gt;&lt;/td&gt;&lt;td&gt;&amp;nbsp;&lt;/td&gt;&lt;/tr&gt;&lt;tr&gt;&lt;td&gt;&amp;nbsp;&lt;/td&gt;&lt;td&gt;&amp;nbsp;&lt;/td&gt;&lt;/tr&gt;&lt;/tbody&gt;&lt;/table&gt;" style="verticalAlign=top;align=left;overflow=fill;html=1;whiteSpace=wrap;" parent="1" vertex="1">
          <mxGeometry x="-100" y="132.94" width="190" height="120" as="geometry" />
        </mxCell>
        <mxCell id="GCFRtCRIiM9Vty_PEJ39-14" style="edgeStyle=orthogonalEdgeStyle;rounded=0;orthogonalLoop=1;jettySize=auto;html=1;entryX=0.5;entryY=1;entryDx=0;entryDy=0;strokeColor=#33FF55;" parent="1" source="elSqw4QGpvTGZRxOkeUJ-1" target="4qKspu7jauIVrjBCxB9f-15" edge="1">
          <mxGeometry relative="1" as="geometry" />
        </mxCell>
        <mxCell id="GCFRtCRIiM9Vty_PEJ39-15" style="edgeStyle=orthogonalEdgeStyle;rounded=0;orthogonalLoop=1;jettySize=auto;html=1;entryX=0.5;entryY=1;entryDx=0;entryDy=0;strokeColor=#33FF55;" parent="1" source="elSqw4QGpvTGZRxOkeUJ-1" target="GCFRtCRIiM9Vty_PEJ39-6" edge="1">
          <mxGeometry relative="1" as="geometry" />
        </mxCell>
        <mxCell id="elSqw4QGpvTGZRxOkeUJ-1" value="&lt;div align=&quot;center&quot;&gt;TPORTAFOLIO&lt;/div&gt;&lt;div&gt;VARCHAR&amp;nbsp; link_drive&lt;/div&gt;&lt;div&gt;DATE&amp;nbsp; &amp;nbsp; &amp;nbsp; &amp;nbsp; &amp;nbsp; fecha_subida&lt;/div&gt;&lt;div&gt;VARCHAR&amp;nbsp; estado&lt;/div&gt;&lt;div&gt;&lt;br&gt;&lt;/div&gt;&lt;table style=&quot;width:100%;font-size:1em;&quot; cellpadding=&quot;2&quot; cellspacing=&quot;0&quot;&gt;&lt;tbody&gt;&lt;tr&gt;&lt;td&gt;PK INT&lt;br&gt;FK INT&lt;br&gt;&lt;/td&gt;&lt;td&gt;&amp;nbsp; &amp;nbsp; &amp;nbsp;Id_Portafolio&lt;br&gt;&amp;nbsp; &amp;nbsp; &amp;nbsp;Id_Docente&lt;br&gt;&lt;/td&gt;&lt;/tr&gt;&lt;tr&gt;&lt;td&gt;&lt;br&gt;&lt;/td&gt;&lt;td&gt;&amp;nbsp;&lt;/td&gt;&lt;/tr&gt;&lt;tr&gt;&lt;td&gt;&amp;nbsp;&lt;/td&gt;&lt;td&gt;&amp;nbsp;&lt;/td&gt;&lt;/tr&gt;&lt;/tbody&gt;&lt;/table&gt;" style="verticalAlign=top;align=left;overflow=fill;html=1;whiteSpace=wrap;" parent="1" vertex="1">
          <mxGeometry x="-440" y="602.94" width="190" height="120" as="geometry" />
        </mxCell>
        <mxCell id="4qKspu7jauIVrjBCxB9f-15" value="&lt;div align=&quot;center&quot;&gt;TREVISION&lt;/div&gt;&lt;div align=&quot;center&quot;&gt;&lt;br&gt;&lt;/div&gt;&lt;div&gt;&amp;nbsp;PK INT&amp;nbsp; &amp;nbsp; &amp;nbsp; &amp;nbsp; &amp;nbsp; &amp;nbsp; Id_revisión&lt;/div&gt;&lt;div&gt;&amp;nbsp;FK INT&amp;nbsp; &amp;nbsp; &amp;nbsp; &amp;nbsp; &amp;nbsp; &amp;nbsp; Id_supervisor&lt;/div&gt;&lt;div&gt;&amp;nbsp;FK INT&amp;nbsp; &amp;nbsp; &amp;nbsp; &amp;nbsp; &amp;nbsp; &amp;nbsp; Id_portafolio&lt;/div&gt;&lt;div&gt;&amp;nbsp;DATE &lt;span style=&quot;white-space: pre;&quot;&gt;&#x9;  &lt;/span&gt;Fecha_Revisión&lt;br&gt;&lt;/div&gt;&lt;div&gt;&amp;nbsp;TEXT&amp;nbsp; &amp;nbsp; &amp;nbsp; &amp;nbsp; &amp;nbsp;comentarios&lt;/div&gt;&lt;table style=&quot;width:100%;font-size:1em;&quot; cellpadding=&quot;2&quot; cellspacing=&quot;0&quot;&gt;&lt;tbody&gt;&lt;tr&gt;&lt;td&gt;&amp;nbsp;ENUM&amp;nbsp; &amp;nbsp; &amp;nbsp; &amp;nbsp;Estado_revisión&lt;/td&gt;&lt;td&gt;&amp;nbsp; &amp;nbsp;&lt;br&gt;&lt;/td&gt;&lt;/tr&gt;&lt;tr&gt;&lt;td&gt;&lt;br&gt;&lt;/td&gt;&lt;td&gt;&amp;nbsp;&lt;/td&gt;&lt;/tr&gt;&lt;tr&gt;&lt;td&gt;&amp;nbsp;&lt;/td&gt;&lt;td&gt;&amp;nbsp;&lt;/td&gt;&lt;/tr&gt;&lt;/tbody&gt;&lt;/table&gt;" style="verticalAlign=top;align=left;overflow=fill;html=1;whiteSpace=wrap;" parent="1" vertex="1">
          <mxGeometry x="-120" y="432.94" width="200" height="120" as="geometry" />
        </mxCell>
        <mxCell id="CEOrfMlCVPJb_CcL6BbS-3" value="cUsuario" style="swimlane;fontStyle=1;align=center;verticalAlign=top;childLayout=stackLayout;horizontal=1;startSize=26;horizontalStack=0;resizeParent=1;resizeParentMax=0;resizeLast=0;collapsible=1;marginBottom=0;whiteSpace=wrap;html=1;" vertex="1" parent="1">
          <mxGeometry x="1070" y="240" width="160" height="168" as="geometry">
            <mxRectangle x="680" y="170" width="90" height="30" as="alternateBounds" />
          </mxGeometry>
        </mxCell>
        <mxCell id="CEOrfMlCVPJb_CcL6BbS-10" value="+ Id_Usuario: type" style="text;strokeColor=none;fillColor=none;align=left;verticalAlign=top;spacingLeft=4;spacingRight=4;overflow=hidden;rotatable=0;points=[[0,0.5],[1,0.5]];portConstraint=eastwest;whiteSpace=wrap;html=1;" vertex="1" parent="CEOrfMlCVPJb_CcL6BbS-3">
          <mxGeometry y="26" width="160" height="26" as="geometry" />
        </mxCell>
        <mxCell id="CEOrfMlCVPJb_CcL6BbS-11" value="+ Nombre: string" style="text;strokeColor=none;fillColor=none;align=left;verticalAlign=top;spacingLeft=4;spacingRight=4;overflow=hidden;rotatable=0;points=[[0,0.5],[1,0.5]];portConstraint=eastwest;whiteSpace=wrap;html=1;" vertex="1" parent="CEOrfMlCVPJb_CcL6BbS-3">
          <mxGeometry y="52" width="160" height="26" as="geometry" />
        </mxCell>
        <mxCell id="CEOrfMlCVPJb_CcL6BbS-4" value="+ email: string" style="text;strokeColor=none;fillColor=none;align=left;verticalAlign=top;spacingLeft=4;spacingRight=4;overflow=hidden;rotatable=0;points=[[0,0.5],[1,0.5]];portConstraint=eastwest;whiteSpace=wrap;html=1;" vertex="1" parent="CEOrfMlCVPJb_CcL6BbS-3">
          <mxGeometry y="78" width="160" height="26" as="geometry" />
        </mxCell>
        <mxCell id="CEOrfMlCVPJb_CcL6BbS-12" value="+ id_rol: string" style="text;strokeColor=none;fillColor=none;align=left;verticalAlign=top;spacingLeft=4;spacingRight=4;overflow=hidden;rotatable=0;points=[[0,0.5],[1,0.5]];portConstraint=eastwest;whiteSpace=wrap;html=1;" vertex="1" parent="CEOrfMlCVPJb_CcL6BbS-3">
          <mxGeometry y="104" width="160" height="26" as="geometry" />
        </mxCell>
        <mxCell id="CEOrfMlCVPJb_CcL6BbS-13" value="+ password: string" style="text;strokeColor=none;fillColor=none;align=left;verticalAlign=top;spacingLeft=4;spacingRight=4;overflow=hidden;rotatable=0;points=[[0,0.5],[1,0.5]];portConstraint=eastwest;whiteSpace=wrap;html=1;" vertex="1" parent="CEOrfMlCVPJb_CcL6BbS-3">
          <mxGeometry y="130" width="160" height="26" as="geometry" />
        </mxCell>
        <mxCell id="CEOrfMlCVPJb_CcL6BbS-5" value="" style="line;strokeWidth=1;fillColor=none;align=left;verticalAlign=middle;spacingTop=-1;spacingLeft=3;spacingRight=3;rotatable=0;labelPosition=right;points=[];portConstraint=eastwest;strokeColor=inherit;" vertex="1" parent="CEOrfMlCVPJb_CcL6BbS-3">
          <mxGeometry y="156" width="160" height="12" as="geometry" />
        </mxCell>
        <mxCell id="CEOrfMlCVPJb_CcL6BbS-14" value="cSemestre" style="swimlane;fontStyle=1;align=center;verticalAlign=top;childLayout=stackLayout;horizontal=1;startSize=26;horizontalStack=0;resizeParent=1;resizeParentMax=0;resizeLast=0;collapsible=1;marginBottom=0;whiteSpace=wrap;html=1;" vertex="1" parent="1">
          <mxGeometry x="1230" y="552.94" width="160" height="142" as="geometry">
            <mxRectangle x="960" y="170" width="90" height="30" as="alternateBounds" />
          </mxGeometry>
        </mxCell>
        <mxCell id="CEOrfMlCVPJb_CcL6BbS-15" value="+ Id_semestre: type" style="text;strokeColor=none;fillColor=none;align=left;verticalAlign=top;spacingLeft=4;spacingRight=4;overflow=hidden;rotatable=0;points=[[0,0.5],[1,0.5]];portConstraint=eastwest;whiteSpace=wrap;html=1;" vertex="1" parent="CEOrfMlCVPJb_CcL6BbS-14">
          <mxGeometry y="26" width="160" height="26" as="geometry" />
        </mxCell>
        <mxCell id="CEOrfMlCVPJb_CcL6BbS-16" value="+ nombre_semestre: string" style="text;strokeColor=none;fillColor=none;align=left;verticalAlign=top;spacingLeft=4;spacingRight=4;overflow=hidden;rotatable=0;points=[[0,0.5],[1,0.5]];portConstraint=eastwest;whiteSpace=wrap;html=1;" vertex="1" parent="CEOrfMlCVPJb_CcL6BbS-14">
          <mxGeometry y="52" width="160" height="26" as="geometry" />
        </mxCell>
        <mxCell id="CEOrfMlCVPJb_CcL6BbS-17" value="+ fecha_inicio: string" style="text;strokeColor=none;fillColor=none;align=left;verticalAlign=top;spacingLeft=4;spacingRight=4;overflow=hidden;rotatable=0;points=[[0,0.5],[1,0.5]];portConstraint=eastwest;whiteSpace=wrap;html=1;" vertex="1" parent="CEOrfMlCVPJb_CcL6BbS-14">
          <mxGeometry y="78" width="160" height="26" as="geometry" />
        </mxCell>
        <mxCell id="CEOrfMlCVPJb_CcL6BbS-18" value="+ fecha_fin: string" style="text;strokeColor=none;fillColor=none;align=left;verticalAlign=top;spacingLeft=4;spacingRight=4;overflow=hidden;rotatable=0;points=[[0,0.5],[1,0.5]];portConstraint=eastwest;whiteSpace=wrap;html=1;" vertex="1" parent="CEOrfMlCVPJb_CcL6BbS-14">
          <mxGeometry y="104" width="160" height="26" as="geometry" />
        </mxCell>
        <mxCell id="CEOrfMlCVPJb_CcL6BbS-21" value="" style="line;strokeWidth=1;fillColor=none;align=left;verticalAlign=middle;spacingTop=-1;spacingLeft=3;spacingRight=3;rotatable=0;labelPosition=right;points=[];portConstraint=eastwest;strokeColor=inherit;" vertex="1" parent="CEOrfMlCVPJb_CcL6BbS-14">
          <mxGeometry y="130" width="160" height="12" as="geometry" />
        </mxCell>
        <mxCell id="CEOrfMlCVPJb_CcL6BbS-22" value="cAsignacion" style="swimlane;fontStyle=1;align=center;verticalAlign=top;childLayout=stackLayout;horizontal=1;startSize=26;horizontalStack=0;resizeParent=1;resizeParentMax=0;resizeLast=0;collapsible=1;marginBottom=0;whiteSpace=wrap;html=1;" vertex="1" parent="1">
          <mxGeometry x="1770" y="190" width="160" height="142" as="geometry">
            <mxRectangle x="680" y="170" width="90" height="30" as="alternateBounds" />
          </mxGeometry>
        </mxCell>
        <mxCell id="CEOrfMlCVPJb_CcL6BbS-23" value="+ Id_asignacion: type" style="text;strokeColor=none;fillColor=none;align=left;verticalAlign=top;spacingLeft=4;spacingRight=4;overflow=hidden;rotatable=0;points=[[0,0.5],[1,0.5]];portConstraint=eastwest;whiteSpace=wrap;html=1;" vertex="1" parent="CEOrfMlCVPJb_CcL6BbS-22">
          <mxGeometry y="26" width="160" height="26" as="geometry" />
        </mxCell>
        <mxCell id="CEOrfMlCVPJb_CcL6BbS-24" value="+ Id_supervisor: string" style="text;strokeColor=none;fillColor=none;align=left;verticalAlign=top;spacingLeft=4;spacingRight=4;overflow=hidden;rotatable=0;points=[[0,0.5],[1,0.5]];portConstraint=eastwest;whiteSpace=wrap;html=1;" vertex="1" parent="CEOrfMlCVPJb_CcL6BbS-22">
          <mxGeometry y="52" width="160" height="26" as="geometry" />
        </mxCell>
        <mxCell id="CEOrfMlCVPJb_CcL6BbS-25" value="+ Id_docente: string" style="text;strokeColor=none;fillColor=none;align=left;verticalAlign=top;spacingLeft=4;spacingRight=4;overflow=hidden;rotatable=0;points=[[0,0.5],[1,0.5]];portConstraint=eastwest;whiteSpace=wrap;html=1;" vertex="1" parent="CEOrfMlCVPJb_CcL6BbS-22">
          <mxGeometry y="78" width="160" height="26" as="geometry" />
        </mxCell>
        <mxCell id="CEOrfMlCVPJb_CcL6BbS-26" value="+ id_semestre: string" style="text;strokeColor=none;fillColor=none;align=left;verticalAlign=top;spacingLeft=4;spacingRight=4;overflow=hidden;rotatable=0;points=[[0,0.5],[1,0.5]];portConstraint=eastwest;whiteSpace=wrap;html=1;" vertex="1" parent="CEOrfMlCVPJb_CcL6BbS-22">
          <mxGeometry y="104" width="160" height="26" as="geometry" />
        </mxCell>
        <mxCell id="CEOrfMlCVPJb_CcL6BbS-29" value="" style="line;strokeWidth=1;fillColor=none;align=left;verticalAlign=middle;spacingTop=-1;spacingLeft=3;spacingRight=3;rotatable=0;labelPosition=right;points=[];portConstraint=eastwest;strokeColor=inherit;" vertex="1" parent="CEOrfMlCVPJb_CcL6BbS-22">
          <mxGeometry y="130" width="160" height="12" as="geometry" />
        </mxCell>
        <mxCell id="CEOrfMlCVPJb_CcL6BbS-30" value="cSeccionesEvaluacion" style="swimlane;fontStyle=1;align=center;verticalAlign=top;childLayout=stackLayout;horizontal=1;startSize=26;horizontalStack=0;resizeParent=1;resizeParentMax=0;resizeLast=0;collapsible=1;marginBottom=0;whiteSpace=wrap;html=1;" vertex="1" parent="1">
          <mxGeometry x="1270" y="69" width="200" height="116" as="geometry">
            <mxRectangle x="680" y="170" width="90" height="30" as="alternateBounds" />
          </mxGeometry>
        </mxCell>
        <mxCell id="CEOrfMlCVPJb_CcL6BbS-31" value="+ Id_seccion: type" style="text;strokeColor=none;fillColor=none;align=left;verticalAlign=top;spacingLeft=4;spacingRight=4;overflow=hidden;rotatable=0;points=[[0,0.5],[1,0.5]];portConstraint=eastwest;whiteSpace=wrap;html=1;" vertex="1" parent="CEOrfMlCVPJb_CcL6BbS-30">
          <mxGeometry y="26" width="200" height="26" as="geometry" />
        </mxCell>
        <mxCell id="CEOrfMlCVPJb_CcL6BbS-32" value="+ nombre_seccion: string" style="text;strokeColor=none;fillColor=none;align=left;verticalAlign=top;spacingLeft=4;spacingRight=4;overflow=hidden;rotatable=0;points=[[0,0.5],[1,0.5]];portConstraint=eastwest;whiteSpace=wrap;html=1;" vertex="1" parent="CEOrfMlCVPJb_CcL6BbS-30">
          <mxGeometry y="52" width="200" height="26" as="geometry" />
        </mxCell>
        <mxCell id="CEOrfMlCVPJb_CcL6BbS-33" value="+ descripcion_seccion: string" style="text;strokeColor=none;fillColor=none;align=left;verticalAlign=top;spacingLeft=4;spacingRight=4;overflow=hidden;rotatable=0;points=[[0,0.5],[1,0.5]];portConstraint=eastwest;whiteSpace=wrap;html=1;" vertex="1" parent="CEOrfMlCVPJb_CcL6BbS-30">
          <mxGeometry y="78" width="200" height="26" as="geometry" />
        </mxCell>
        <mxCell id="CEOrfMlCVPJb_CcL6BbS-35" value="" style="line;strokeWidth=1;fillColor=none;align=left;verticalAlign=middle;spacingTop=-1;spacingLeft=3;spacingRight=3;rotatable=0;labelPosition=right;points=[];portConstraint=eastwest;strokeColor=inherit;" vertex="1" parent="CEOrfMlCVPJb_CcL6BbS-30">
          <mxGeometry y="104" width="200" height="12" as="geometry" />
        </mxCell>
        <mxCell id="CEOrfMlCVPJb_CcL6BbS-36" value="cCriteriosEvaluacion" style="swimlane;fontStyle=1;align=center;verticalAlign=top;childLayout=stackLayout;horizontal=1;startSize=26;horizontalStack=0;resizeParent=1;resizeParentMax=0;resizeLast=0;collapsible=1;marginBottom=0;whiteSpace=wrap;html=1;" vertex="1" parent="1">
          <mxGeometry x="970" y="17" width="200" height="168" as="geometry">
            <mxRectangle x="680" y="170" width="90" height="30" as="alternateBounds" />
          </mxGeometry>
        </mxCell>
        <mxCell id="CEOrfMlCVPJb_CcL6BbS-37" value="+ Id_criterio: type" style="text;strokeColor=none;fillColor=none;align=left;verticalAlign=top;spacingLeft=4;spacingRight=4;overflow=hidden;rotatable=0;points=[[0,0.5],[1,0.5]];portConstraint=eastwest;whiteSpace=wrap;html=1;" vertex="1" parent="CEOrfMlCVPJb_CcL6BbS-36">
          <mxGeometry y="26" width="200" height="26" as="geometry" />
        </mxCell>
        <mxCell id="CEOrfMlCVPJb_CcL6BbS-38" value="+ descripcion_criterio: string" style="text;strokeColor=none;fillColor=none;align=left;verticalAlign=top;spacingLeft=4;spacingRight=4;overflow=hidden;rotatable=0;points=[[0,0.5],[1,0.5]];portConstraint=eastwest;whiteSpace=wrap;html=1;" vertex="1" parent="CEOrfMlCVPJb_CcL6BbS-36">
          <mxGeometry y="52" width="200" height="26" as="geometry" />
        </mxCell>
        <mxCell id="CEOrfMlCVPJb_CcL6BbS-39" value="+ id_seccion: string" style="text;strokeColor=none;fillColor=none;align=left;verticalAlign=top;spacingLeft=4;spacingRight=4;overflow=hidden;rotatable=0;points=[[0,0.5],[1,0.5]];portConstraint=eastwest;whiteSpace=wrap;html=1;" vertex="1" parent="CEOrfMlCVPJb_CcL6BbS-36">
          <mxGeometry y="78" width="200" height="26" as="geometry" />
        </mxCell>
        <mxCell id="CEOrfMlCVPJb_CcL6BbS-41" value="+ obligatoriedad: string" style="text;strokeColor=none;fillColor=none;align=left;verticalAlign=top;spacingLeft=4;spacingRight=4;overflow=hidden;rotatable=0;points=[[0,0.5],[1,0.5]];portConstraint=eastwest;whiteSpace=wrap;html=1;" vertex="1" parent="CEOrfMlCVPJb_CcL6BbS-36">
          <mxGeometry y="104" width="200" height="26" as="geometry" />
        </mxCell>
        <mxCell id="CEOrfMlCVPJb_CcL6BbS-42" value="+ peso: string" style="text;strokeColor=none;fillColor=none;align=left;verticalAlign=top;spacingLeft=4;spacingRight=4;overflow=hidden;rotatable=0;points=[[0,0.5],[1,0.5]];portConstraint=eastwest;whiteSpace=wrap;html=1;" vertex="1" parent="CEOrfMlCVPJb_CcL6BbS-36">
          <mxGeometry y="130" width="200" height="26" as="geometry" />
        </mxCell>
        <mxCell id="CEOrfMlCVPJb_CcL6BbS-40" value="" style="line;strokeWidth=1;fillColor=none;align=left;verticalAlign=middle;spacingTop=-1;spacingLeft=3;spacingRight=3;rotatable=0;labelPosition=right;points=[];portConstraint=eastwest;strokeColor=inherit;" vertex="1" parent="CEOrfMlCVPJb_CcL6BbS-36">
          <mxGeometry y="156" width="200" height="12" as="geometry" />
        </mxCell>
        <mxCell id="CEOrfMlCVPJb_CcL6BbS-43" value="cEvaluaciones" style="swimlane;fontStyle=1;align=center;verticalAlign=top;childLayout=stackLayout;horizontal=1;startSize=26;horizontalStack=0;resizeParent=1;resizeParentMax=0;resizeLast=0;collapsible=1;marginBottom=0;whiteSpace=wrap;html=1;" vertex="1" parent="1">
          <mxGeometry x="730" y="220" width="160" height="246" as="geometry">
            <mxRectangle x="680" y="170" width="90" height="30" as="alternateBounds" />
          </mxGeometry>
        </mxCell>
        <mxCell id="CEOrfMlCVPJb_CcL6BbS-44" value="+ id_evaluacion: type" style="text;strokeColor=none;fillColor=none;align=left;verticalAlign=top;spacingLeft=4;spacingRight=4;overflow=hidden;rotatable=0;points=[[0,0.5],[1,0.5]];portConstraint=eastwest;whiteSpace=wrap;html=1;" vertex="1" parent="CEOrfMlCVPJb_CcL6BbS-43">
          <mxGeometry y="26" width="160" height="26" as="geometry" />
        </mxCell>
        <mxCell id="CEOrfMlCVPJb_CcL6BbS-45" value="+ id_docente: string" style="text;strokeColor=none;fillColor=none;align=left;verticalAlign=top;spacingLeft=4;spacingRight=4;overflow=hidden;rotatable=0;points=[[0,0.5],[1,0.5]];portConstraint=eastwest;whiteSpace=wrap;html=1;" vertex="1" parent="CEOrfMlCVPJb_CcL6BbS-43">
          <mxGeometry y="52" width="160" height="26" as="geometry" />
        </mxCell>
        <mxCell id="CEOrfMlCVPJb_CcL6BbS-46" value="+ id_supervisor: string" style="text;strokeColor=none;fillColor=none;align=left;verticalAlign=top;spacingLeft=4;spacingRight=4;overflow=hidden;rotatable=0;points=[[0,0.5],[1,0.5]];portConstraint=eastwest;whiteSpace=wrap;html=1;" vertex="1" parent="CEOrfMlCVPJb_CcL6BbS-43">
          <mxGeometry y="78" width="160" height="26" as="geometry" />
        </mxCell>
        <mxCell id="CEOrfMlCVPJb_CcL6BbS-47" value="+ id_semestre: string" style="text;strokeColor=none;fillColor=none;align=left;verticalAlign=top;spacingLeft=4;spacingRight=4;overflow=hidden;rotatable=0;points=[[0,0.5],[1,0.5]];portConstraint=eastwest;whiteSpace=wrap;html=1;" vertex="1" parent="CEOrfMlCVPJb_CcL6BbS-43">
          <mxGeometry y="104" width="160" height="26" as="geometry" />
        </mxCell>
        <mxCell id="CEOrfMlCVPJb_CcL6BbS-111" value="+ Tipo: string" style="text;strokeColor=none;fillColor=none;align=left;verticalAlign=top;spacingLeft=4;spacingRight=4;overflow=hidden;rotatable=0;points=[[0,0.5],[1,0.5]];portConstraint=eastwest;whiteSpace=wrap;html=1;" vertex="1" parent="CEOrfMlCVPJb_CcL6BbS-43">
          <mxGeometry y="130" width="160" height="26" as="geometry" />
        </mxCell>
        <mxCell id="CEOrfMlCVPJb_CcL6BbS-108" value="+ estado: string" style="text;strokeColor=none;fillColor=none;align=left;verticalAlign=top;spacingLeft=4;spacingRight=4;overflow=hidden;rotatable=0;points=[[0,0.5],[1,0.5]];portConstraint=eastwest;whiteSpace=wrap;html=1;" vertex="1" parent="CEOrfMlCVPJb_CcL6BbS-43">
          <mxGeometry y="156" width="160" height="26" as="geometry" />
        </mxCell>
        <mxCell id="CEOrfMlCVPJb_CcL6BbS-109" value="+ progueso: string" style="text;strokeColor=none;fillColor=none;align=left;verticalAlign=top;spacingLeft=4;spacingRight=4;overflow=hidden;rotatable=0;points=[[0,0.5],[1,0.5]];portConstraint=eastwest;whiteSpace=wrap;html=1;" vertex="1" parent="CEOrfMlCVPJb_CcL6BbS-43">
          <mxGeometry y="182" width="160" height="26" as="geometry" />
        </mxCell>
        <mxCell id="CEOrfMlCVPJb_CcL6BbS-49" value="+ fecha_evaluacion: string" style="text;strokeColor=none;fillColor=none;align=left;verticalAlign=top;spacingLeft=4;spacingRight=4;overflow=hidden;rotatable=0;points=[[0,0.5],[1,0.5]];portConstraint=eastwest;whiteSpace=wrap;html=1;" vertex="1" parent="CEOrfMlCVPJb_CcL6BbS-43">
          <mxGeometry y="208" width="160" height="26" as="geometry" />
        </mxCell>
        <mxCell id="CEOrfMlCVPJb_CcL6BbS-48" value="" style="line;strokeWidth=1;fillColor=none;align=left;verticalAlign=middle;spacingTop=-1;spacingLeft=3;spacingRight=3;rotatable=0;labelPosition=right;points=[];portConstraint=eastwest;strokeColor=inherit;" vertex="1" parent="CEOrfMlCVPJb_CcL6BbS-43">
          <mxGeometry y="234" width="160" height="12" as="geometry" />
        </mxCell>
        <mxCell id="CEOrfMlCVPJb_CcL6BbS-64" value="cDetalleEvaluacion" style="swimlane;fontStyle=1;align=center;verticalAlign=top;childLayout=stackLayout;horizontal=1;startSize=26;horizontalStack=0;resizeParent=1;resizeParentMax=0;resizeLast=0;collapsible=1;marginBottom=0;whiteSpace=wrap;html=1;" vertex="1" parent="1">
          <mxGeometry x="690" y="10" width="160" height="168" as="geometry">
            <mxRectangle x="680" y="170" width="90" height="30" as="alternateBounds" />
          </mxGeometry>
        </mxCell>
        <mxCell id="CEOrfMlCVPJb_CcL6BbS-65" value="+ id_detalle: type" style="text;strokeColor=none;fillColor=none;align=left;verticalAlign=top;spacingLeft=4;spacingRight=4;overflow=hidden;rotatable=0;points=[[0,0.5],[1,0.5]];portConstraint=eastwest;whiteSpace=wrap;html=1;" vertex="1" parent="CEOrfMlCVPJb_CcL6BbS-64">
          <mxGeometry y="26" width="160" height="26" as="geometry" />
        </mxCell>
        <mxCell id="CEOrfMlCVPJb_CcL6BbS-66" value="+ id_evaluacion: string" style="text;strokeColor=none;fillColor=none;align=left;verticalAlign=top;spacingLeft=4;spacingRight=4;overflow=hidden;rotatable=0;points=[[0,0.5],[1,0.5]];portConstraint=eastwest;whiteSpace=wrap;html=1;" vertex="1" parent="CEOrfMlCVPJb_CcL6BbS-64">
          <mxGeometry y="52" width="160" height="26" as="geometry" />
        </mxCell>
        <mxCell id="CEOrfMlCVPJb_CcL6BbS-67" value="+ id_criterio: string" style="text;strokeColor=none;fillColor=none;align=left;verticalAlign=top;spacingLeft=4;spacingRight=4;overflow=hidden;rotatable=0;points=[[0,0.5],[1,0.5]];portConstraint=eastwest;whiteSpace=wrap;html=1;" vertex="1" parent="CEOrfMlCVPJb_CcL6BbS-64">
          <mxGeometry y="78" width="160" height="26" as="geometry" />
        </mxCell>
        <mxCell id="CEOrfMlCVPJb_CcL6BbS-68" value="+ cumple: string" style="text;strokeColor=none;fillColor=none;align=left;verticalAlign=top;spacingLeft=4;spacingRight=4;overflow=hidden;rotatable=0;points=[[0,0.5],[1,0.5]];portConstraint=eastwest;whiteSpace=wrap;html=1;" vertex="1" parent="CEOrfMlCVPJb_CcL6BbS-64">
          <mxGeometry y="104" width="160" height="26" as="geometry" />
        </mxCell>
        <mxCell id="CEOrfMlCVPJb_CcL6BbS-69" value="+ comentario: string" style="text;strokeColor=none;fillColor=none;align=left;verticalAlign=top;spacingLeft=4;spacingRight=4;overflow=hidden;rotatable=0;points=[[0,0.5],[1,0.5]];portConstraint=eastwest;whiteSpace=wrap;html=1;" vertex="1" parent="CEOrfMlCVPJb_CcL6BbS-64">
          <mxGeometry y="130" width="160" height="26" as="geometry" />
        </mxCell>
        <mxCell id="CEOrfMlCVPJb_CcL6BbS-70" value="" style="line;strokeWidth=1;fillColor=none;align=left;verticalAlign=middle;spacingTop=-1;spacingLeft=3;spacingRight=3;rotatable=0;labelPosition=right;points=[];portConstraint=eastwest;strokeColor=inherit;" vertex="1" parent="CEOrfMlCVPJb_CcL6BbS-64">
          <mxGeometry y="156" width="160" height="12" as="geometry" />
        </mxCell>
        <mxCell id="CEOrfMlCVPJb_CcL6BbS-71" value="cReportes" style="swimlane;fontStyle=1;align=center;verticalAlign=top;childLayout=stackLayout;horizontal=1;startSize=26;horizontalStack=0;resizeParent=1;resizeParentMax=0;resizeLast=0;collapsible=1;marginBottom=0;whiteSpace=wrap;html=1;" vertex="1" parent="1">
          <mxGeometry x="700" y="522.94" width="200" height="116" as="geometry">
            <mxRectangle x="680" y="170" width="90" height="30" as="alternateBounds" />
          </mxGeometry>
        </mxCell>
        <mxCell id="CEOrfMlCVPJb_CcL6BbS-72" value="+ id_reporte: type" style="text;strokeColor=none;fillColor=none;align=left;verticalAlign=top;spacingLeft=4;spacingRight=4;overflow=hidden;rotatable=0;points=[[0,0.5],[1,0.5]];portConstraint=eastwest;whiteSpace=wrap;html=1;" vertex="1" parent="CEOrfMlCVPJb_CcL6BbS-71">
          <mxGeometry y="26" width="200" height="26" as="geometry" />
        </mxCell>
        <mxCell id="CEOrfMlCVPJb_CcL6BbS-73" value="+ id_evaluacion: string" style="text;strokeColor=none;fillColor=none;align=left;verticalAlign=top;spacingLeft=4;spacingRight=4;overflow=hidden;rotatable=0;points=[[0,0.5],[1,0.5]];portConstraint=eastwest;whiteSpace=wrap;html=1;" vertex="1" parent="CEOrfMlCVPJb_CcL6BbS-71">
          <mxGeometry y="52" width="200" height="26" as="geometry" />
        </mxCell>
        <mxCell id="CEOrfMlCVPJb_CcL6BbS-74" value="+ enlace_reporte: string" style="text;strokeColor=none;fillColor=none;align=left;verticalAlign=top;spacingLeft=4;spacingRight=4;overflow=hidden;rotatable=0;points=[[0,0.5],[1,0.5]];portConstraint=eastwest;whiteSpace=wrap;html=1;" vertex="1" parent="CEOrfMlCVPJb_CcL6BbS-71">
          <mxGeometry y="78" width="200" height="26" as="geometry" />
        </mxCell>
        <mxCell id="CEOrfMlCVPJb_CcL6BbS-77" value="" style="line;strokeWidth=1;fillColor=none;align=left;verticalAlign=middle;spacingTop=-1;spacingLeft=3;spacingRight=3;rotatable=0;labelPosition=right;points=[];portConstraint=eastwest;strokeColor=inherit;" vertex="1" parent="CEOrfMlCVPJb_CcL6BbS-71">
          <mxGeometry y="104" width="200" height="12" as="geometry" />
        </mxCell>
        <mxCell id="CEOrfMlCVPJb_CcL6BbS-87" style="edgeStyle=orthogonalEdgeStyle;rounded=0;orthogonalLoop=1;jettySize=auto;html=1;entryX=1;entryY=0.5;entryDx=0;entryDy=0;" edge="1" parent="1" source="CEOrfMlCVPJb_CcL6BbS-37" target="CEOrfMlCVPJb_CcL6BbS-67">
          <mxGeometry relative="1" as="geometry" />
        </mxCell>
        <mxCell id="CEOrfMlCVPJb_CcL6BbS-88" style="edgeStyle=orthogonalEdgeStyle;rounded=0;orthogonalLoop=1;jettySize=auto;html=1;entryX=1;entryY=0.5;entryDx=0;entryDy=0;" edge="1" parent="1" source="CEOrfMlCVPJb_CcL6BbS-31" target="CEOrfMlCVPJb_CcL6BbS-39">
          <mxGeometry relative="1" as="geometry" />
        </mxCell>
        <mxCell id="CEOrfMlCVPJb_CcL6BbS-92" style="edgeStyle=orthogonalEdgeStyle;rounded=0;orthogonalLoop=1;jettySize=auto;html=1;entryX=1;entryY=0.5;entryDx=0;entryDy=0;" edge="1" parent="1" source="CEOrfMlCVPJb_CcL6BbS-15" target="CEOrfMlCVPJb_CcL6BbS-26">
          <mxGeometry relative="1" as="geometry" />
        </mxCell>
        <mxCell id="CEOrfMlCVPJb_CcL6BbS-93" style="edgeStyle=orthogonalEdgeStyle;rounded=0;orthogonalLoop=1;jettySize=auto;html=1;entryX=0;entryY=0.5;entryDx=0;entryDy=0;exitX=0;exitY=0.5;exitDx=0;exitDy=0;" edge="1" parent="1" source="CEOrfMlCVPJb_CcL6BbS-44" target="CEOrfMlCVPJb_CcL6BbS-73">
          <mxGeometry relative="1" as="geometry">
            <Array as="points">
              <mxPoint x="720" y="259" />
              <mxPoint x="720" y="300" />
              <mxPoint x="640" y="300" />
              <mxPoint x="640" y="607" />
            </Array>
          </mxGeometry>
        </mxCell>
        <mxCell id="CEOrfMlCVPJb_CcL6BbS-95" style="edgeStyle=orthogonalEdgeStyle;rounded=0;orthogonalLoop=1;jettySize=auto;html=1;entryX=1;entryY=0.5;entryDx=0;entryDy=0;" edge="1" parent="1" source="CEOrfMlCVPJb_CcL6BbS-15" target="CEOrfMlCVPJb_CcL6BbS-47">
          <mxGeometry relative="1" as="geometry">
            <Array as="points">
              <mxPoint x="970" y="592" />
              <mxPoint x="970" y="337" />
            </Array>
          </mxGeometry>
        </mxCell>
        <mxCell id="CEOrfMlCVPJb_CcL6BbS-96" style="edgeStyle=orthogonalEdgeStyle;rounded=0;orthogonalLoop=1;jettySize=auto;html=1;entryX=1;entryY=0.5;entryDx=0;entryDy=0;" edge="1" parent="1" source="CEOrfMlCVPJb_CcL6BbS-10" target="CEOrfMlCVPJb_CcL6BbS-45">
          <mxGeometry relative="1" as="geometry" />
        </mxCell>
        <mxCell id="CEOrfMlCVPJb_CcL6BbS-97" style="edgeStyle=orthogonalEdgeStyle;rounded=0;orthogonalLoop=1;jettySize=auto;html=1;entryX=1;entryY=0.5;entryDx=0;entryDy=0;" edge="1" parent="1" source="CEOrfMlCVPJb_CcL6BbS-10" target="CEOrfMlCVPJb_CcL6BbS-46">
          <mxGeometry relative="1" as="geometry" />
        </mxCell>
        <mxCell id="CEOrfMlCVPJb_CcL6BbS-98" style="edgeStyle=orthogonalEdgeStyle;rounded=0;orthogonalLoop=1;jettySize=auto;html=1;entryX=0;entryY=0.5;entryDx=0;entryDy=0;" edge="1" parent="1" source="CEOrfMlCVPJb_CcL6BbS-10" target="CEOrfMlCVPJb_CcL6BbS-24">
          <mxGeometry relative="1" as="geometry" />
        </mxCell>
        <mxCell id="CEOrfMlCVPJb_CcL6BbS-100" style="edgeStyle=orthogonalEdgeStyle;rounded=0;orthogonalLoop=1;jettySize=auto;html=1;entryX=0;entryY=0.5;entryDx=0;entryDy=0;" edge="1" parent="1" source="CEOrfMlCVPJb_CcL6BbS-10" target="CEOrfMlCVPJb_CcL6BbS-25">
          <mxGeometry relative="1" as="geometry">
            <Array as="points">
              <mxPoint x="1400" y="279" />
              <mxPoint x="1400" y="281" />
              <mxPoint x="1600" y="281" />
            </Array>
          </mxGeometry>
        </mxCell>
        <mxCell id="CEOrfMlCVPJb_CcL6BbS-101" style="edgeStyle=orthogonalEdgeStyle;rounded=0;orthogonalLoop=1;jettySize=auto;html=1;entryX=0;entryY=0.5;entryDx=0;entryDy=0;" edge="1" parent="1" source="CEOrfMlCVPJb_CcL6BbS-44" target="CEOrfMlCVPJb_CcL6BbS-66">
          <mxGeometry relative="1" as="geometry" />
        </mxCell>
        <mxCell id="CEOrfMlCVPJb_CcL6BbS-102" value="cRol" style="swimlane;fontStyle=1;align=center;verticalAlign=top;childLayout=stackLayout;horizontal=1;startSize=26;horizontalStack=0;resizeParent=1;resizeParentMax=0;resizeLast=0;collapsible=1;marginBottom=0;whiteSpace=wrap;html=1;" vertex="1" parent="1">
          <mxGeometry x="1300" y="360" width="200" height="116" as="geometry">
            <mxRectangle x="680" y="170" width="90" height="30" as="alternateBounds" />
          </mxGeometry>
        </mxCell>
        <mxCell id="CEOrfMlCVPJb_CcL6BbS-103" value="+ id_rol: type" style="text;strokeColor=none;fillColor=none;align=left;verticalAlign=top;spacingLeft=4;spacingRight=4;overflow=hidden;rotatable=0;points=[[0,0.5],[1,0.5]];portConstraint=eastwest;whiteSpace=wrap;html=1;" vertex="1" parent="CEOrfMlCVPJb_CcL6BbS-102">
          <mxGeometry y="26" width="200" height="26" as="geometry" />
        </mxCell>
        <mxCell id="CEOrfMlCVPJb_CcL6BbS-104" value="+ tipo_rol: string" style="text;strokeColor=none;fillColor=none;align=left;verticalAlign=top;spacingLeft=4;spacingRight=4;overflow=hidden;rotatable=0;points=[[0,0.5],[1,0.5]];portConstraint=eastwest;whiteSpace=wrap;html=1;" vertex="1" parent="CEOrfMlCVPJb_CcL6BbS-102">
          <mxGeometry y="52" width="200" height="26" as="geometry" />
        </mxCell>
        <mxCell id="CEOrfMlCVPJb_CcL6BbS-105" value="+ descripcion: string" style="text;strokeColor=none;fillColor=none;align=left;verticalAlign=top;spacingLeft=4;spacingRight=4;overflow=hidden;rotatable=0;points=[[0,0.5],[1,0.5]];portConstraint=eastwest;whiteSpace=wrap;html=1;" vertex="1" parent="CEOrfMlCVPJb_CcL6BbS-102">
          <mxGeometry y="78" width="200" height="26" as="geometry" />
        </mxCell>
        <mxCell id="CEOrfMlCVPJb_CcL6BbS-106" value="" style="line;strokeWidth=1;fillColor=none;align=left;verticalAlign=middle;spacingTop=-1;spacingLeft=3;spacingRight=3;rotatable=0;labelPosition=right;points=[];portConstraint=eastwest;strokeColor=inherit;" vertex="1" parent="CEOrfMlCVPJb_CcL6BbS-102">
          <mxGeometry y="104" width="200" height="12" as="geometry" />
        </mxCell>
        <mxCell id="CEOrfMlCVPJb_CcL6BbS-107" style="edgeStyle=orthogonalEdgeStyle;rounded=0;orthogonalLoop=1;jettySize=auto;html=1;entryX=1;entryY=0.5;entryDx=0;entryDy=0;" edge="1" parent="1" source="CEOrfMlCVPJb_CcL6BbS-103" target="CEOrfMlCVPJb_CcL6BbS-12">
          <mxGeometry relative="1" as="geometry" />
        </mxCell>
        <mxCell id="CEOrfMlCVPJb_CcL6BbS-112" value="cSemestre" style="swimlane;fontStyle=1;align=center;verticalAlign=top;childLayout=stackLayout;horizontal=1;startSize=26;horizontalStack=0;resizeParent=1;resizeParentMax=0;resizeLast=0;collapsible=1;marginBottom=0;whiteSpace=wrap;html=1;" vertex="1" parent="1">
          <mxGeometry x="240" y="218.00000000000006" width="160" height="142" as="geometry">
            <mxRectangle x="960" y="170" width="90" height="30" as="alternateBounds" />
          </mxGeometry>
        </mxCell>
        <mxCell id="CEOrfMlCVPJb_CcL6BbS-113" value="+ Id_semestre: type" style="text;strokeColor=none;fillColor=none;align=left;verticalAlign=top;spacingLeft=4;spacingRight=4;overflow=hidden;rotatable=0;points=[[0,0.5],[1,0.5]];portConstraint=eastwest;whiteSpace=wrap;html=1;" vertex="1" parent="CEOrfMlCVPJb_CcL6BbS-112">
          <mxGeometry y="26" width="160" height="26" as="geometry" />
        </mxCell>
        <mxCell id="CEOrfMlCVPJb_CcL6BbS-114" value="+ nombre_semestre: string" style="text;strokeColor=none;fillColor=none;align=left;verticalAlign=top;spacingLeft=4;spacingRight=4;overflow=hidden;rotatable=0;points=[[0,0.5],[1,0.5]];portConstraint=eastwest;whiteSpace=wrap;html=1;" vertex="1" parent="CEOrfMlCVPJb_CcL6BbS-112">
          <mxGeometry y="52" width="160" height="26" as="geometry" />
        </mxCell>
        <mxCell id="CEOrfMlCVPJb_CcL6BbS-115" value="+ fecha_inicio: string" style="text;strokeColor=none;fillColor=none;align=left;verticalAlign=top;spacingLeft=4;spacingRight=4;overflow=hidden;rotatable=0;points=[[0,0.5],[1,0.5]];portConstraint=eastwest;whiteSpace=wrap;html=1;" vertex="1" parent="CEOrfMlCVPJb_CcL6BbS-112">
          <mxGeometry y="78" width="160" height="26" as="geometry" />
        </mxCell>
        <mxCell id="CEOrfMlCVPJb_CcL6BbS-116" value="+ fecha_fin: string" style="text;strokeColor=none;fillColor=none;align=left;verticalAlign=top;spacingLeft=4;spacingRight=4;overflow=hidden;rotatable=0;points=[[0,0.5],[1,0.5]];portConstraint=eastwest;whiteSpace=wrap;html=1;" vertex="1" parent="CEOrfMlCVPJb_CcL6BbS-112">
          <mxGeometry y="104" width="160" height="26" as="geometry" />
        </mxCell>
        <mxCell id="CEOrfMlCVPJb_CcL6BbS-117" value="" style="line;strokeWidth=1;fillColor=none;align=left;verticalAlign=middle;spacingTop=-1;spacingLeft=3;spacingRight=3;rotatable=0;labelPosition=right;points=[];portConstraint=eastwest;strokeColor=inherit;" vertex="1" parent="CEOrfMlCVPJb_CcL6BbS-112">
          <mxGeometry y="130" width="160" height="12" as="geometry" />
        </mxCell>
      </root>
    </mxGraphModel>
  </diagram>
</mxfile>
